<svg xmlns="http://www.w3.org/2000/svg" viewBox="0 0 1600 800">
  <defs>
    <linearGradient id="bg" x1="0" x2="1" y1="0" y2="1">
      <stop offset="0%" stop-color="#86d8d0"/>
      <stop offset="100%" stop-color="#1f4d46"/>
    </linearGradient>
  </defs>
  <rect width="1600" height="800" fill="url(#bg)"/>
  <g fill="#ffffff" opacity=".6">
    <circle cx="270" cy="170" r="24"/><circle cx="340" cy="120" r="36"/><circle cx="420" cy="190" r="28"/>
    <circle cx="1180" cy="200" r="22"/><circle cx="1260" cy="150" r="34"/><circle cx="1330" cy="215" r="25"/>
    <circle cx="1120" cy="550" r="18"/><circle cx="1210" cy="500" r="30"/><circle cx="1290" cy="560" r="22"/>
  </g>
  <rect x="250" y="520" width="1100" height="120" rx="60" fill="#fff8ef" opacity=".92"/>
  <g fill="#f3c99c">
    <circle cx="780" cy="340" r="150"/>
    <ellipse cx="670" cy="220" rx="45" ry="105" transform="rotate(-18 670 220)"/>
    <ellipse cx="890" cy="220" rx="45" ry="105" transform="rotate(18 890 220)"/>
  </g>
  <g fill="#132a25">
    <circle cx="725" cy="330" r="12"/>
    <circle cx="835" cy="330" r="12"/>
    <ellipse cx="780" cy="385" rx="30" ry="22"/>
    <path d="M725 418c20 24 90 24 110 0" fill="none" stroke="#132a25" stroke-linecap="round" stroke-width="14"/>
  </g>
</svg>
