<svg xmlns="http://www.w3.org/2000/svg" viewBox="0 0 1000 1000">
  <defs>
    <linearGradient id="bg" x1="0" x2="1" y1="0" y2="1">
      <stop offset="0%" stop-color="#7fd2f1"/>
      <stop offset="100%" stop-color="#274f77"/>
    </linearGradient>
  </defs>
  <rect width="1000" height="1000" fill="url(#bg)"/>
  <circle cx="280" cy="220" r="50" fill="#fff8ef" opacity=".35"/>
  <circle cx="780" cy="170" r="80" fill="#fff8ef" opacity=".2"/>
  <circle cx="760" cy="730" r="65" fill="#fff8ef" opacity=".15"/>
  <g transform="translate(175 140)">
    <circle cx="320" cy="230" r="160" fill="#fff8ef"/>
    <ellipse cx="205" cy="120" rx="50" ry="115" transform="rotate(-22 205 120)" fill="#fff8ef"/>
    <ellipse cx="435" cy="120" rx="50" ry="115" transform="rotate(22 435 120)" fill="#fff8ef"/>
    <circle cx="265" cy="215" r="12" fill="#132a25"/>
    <circle cx="375" cy="215" r="12" fill="#132a25"/>
    <ellipse cx="320" cy="270" rx="30" ry="22" fill="#132a25"/>
    <path d="M265 305c22 18 88 18 110 0" fill="none" stroke="#132a25" stroke-linecap="round" stroke-width="14"/>
  </g>
  <g fill="#fff8ef" opacity=".75">
    <circle cx="250" cy="660" r="22"/><circle cx="320" cy="610" r="34"/><circle cx="390" cy="675" r="26"/>
    <circle cx="670" cy="610" r="22"/><circle cx="740" cy="560" r="34"/><circle cx="810" cy="625" r="26"/>
  </g>
</svg>
